<svg width="53" height="41" viewBox="0 0 53 41" fill="none" xmlns="http://www.w3.org/2000/svg">
<path d="M2.512 9.56H6.424C8.392 9.56 9.832 9.968 10.744 10.784C11.672 11.584 12.136 12.896 12.136 14.72C12.136 17.216 11.336 18.728 9.736 19.256L12.496 29H9.88L7.336 19.88H5.224V29H2.512V9.56ZM6.256 17.936C7.424 17.936 8.256 17.704 8.752 17.24C9.264 16.776 9.52 15.936 9.52 14.72C9.52 13.92 9.432 13.296 9.256 12.848C9.08 12.384 8.768 12.048 8.32 11.84C7.872 11.616 7.24 11.504 6.424 11.504H5.224V17.936H6.256ZM21.1253 29.216C19.2213 29.216 17.8533 28.68 17.0213 27.608C16.2053 26.52 15.7973 24.952 15.7973 22.904V15.536C15.7973 13.52 16.2133 11.992 17.0453 10.952C17.8773 9.912 19.2373 9.392 21.1253 9.392C23.0133 9.392 24.3653 9.92 25.1813 10.976C26.0133 12.016 26.4293 13.536 26.4293 15.536V22.928C26.4293 24.944 26.0133 26.496 25.1813 27.584C24.3493 28.672 22.9973 29.216 21.1253 29.216ZM21.1253 27.08C22.1333 27.08 22.8133 26.784 23.1653 26.192C23.5173 25.6 23.6933 24.704 23.6933 23.504V14.984C23.6933 13.8 23.5173 12.928 23.1653 12.368C22.8133 11.792 22.1333 11.504 21.1253 11.504C20.1013 11.504 19.4133 11.792 19.0613 12.368C18.7093 12.928 18.5333 13.8 18.5333 14.984V23.504C18.5333 24.704 18.7093 25.6 19.0613 26.192C19.4133 26.784 20.1013 27.08 21.1253 27.08ZM30.2948 9.56H34.7588C36.5188 9.56 37.8228 9.96 38.6708 10.76C39.5188 11.544 39.9428 12.768 39.9428 14.432C39.9428 16.912 39.0148 18.28 37.1588 18.536C38.3108 18.808 39.1508 19.352 39.6788 20.168C40.2068 20.968 40.4708 22.064 40.4708 23.456C40.4708 25.2 40.0548 26.56 39.2228 27.536C38.4068 28.512 37.1588 29 35.4788 29H30.2948V9.56ZM34.6148 17.672C35.7348 17.672 36.5108 17.432 36.9428 16.952C37.3748 16.456 37.5908 15.616 37.5908 14.432C37.5908 13.568 37.4548 12.936 37.1828 12.536C36.9268 12.12 36.5348 11.856 36.0068 11.744C35.4788 11.632 34.6948 11.576 33.6548 11.576H33.0068V17.672H34.6148ZM34.8308 27.056C35.6308 27.056 36.2468 26.936 36.6788 26.696C37.1268 26.44 37.4388 26.056 37.6148 25.544C37.7908 25.032 37.8788 24.336 37.8788 23.456C37.8788 22.208 37.6228 21.28 37.1108 20.672C36.5988 20.048 35.7668 19.736 34.6148 19.736H33.0068V27.056H34.8308ZM44.0807 9.56H51.6167V11.576H46.7927V18.008H50.7047V19.928H46.7927V27.056H51.6647V29H44.0807V9.56Z" fill="#005BC1"/>
<line y1="40" x2="53" y2="40" stroke="#005BC1" stroke-width="2"/>
</svg>
